<?xml version="1.0" encoding="utf-8"?>
<!-- Generator: Adobe Illustrator 15.0.0, SVG Export Plug-In . SVG Version: 6.00 Build 0)  -->
<!DOCTYPE svg PUBLIC "-//W3C//DTD SVG 1.1//EN" "http://www.w3.org/Graphics/SVG/1.1/DTD/svg11.dtd">
<svg version="1.1" id="Layer_1" xmlns="http://www.w3.org/2000/svg" xmlns:xlink="http://www.w3.org/1999/xlink" x="0px" y="0px"
	 width="50px" height="50px" viewBox="0 0 50 50" enable-background="new 0 0 50 50" xml:space="preserve">
<rect fill="#FFFFFF" stroke="#000000" stroke-width="0.5" stroke-miterlimit="10" width="50" height="50"/>
<g id="Layer_2">
	<path d="M31.001,17.943c-0.396,0.392-0.398,1.031-0.006,1.426c0.002,0.002,0.004,0.004,0.006,0.006l4.64,4.64H11.899
		c-0.557,0-1.009,0.451-1.009,1.009s0.452,1.009,1.009,1.009H35.62l-4.619,4.608c-0.391,0.394-0.391,1.029,0,1.423
		c0.394,0.39,1.029,0.39,1.422,0l6.415-6.415c0.354-0.339,0.365-0.901,0.026-1.255c-0.009-0.009-0.018-0.017-0.026-0.026
		l-6.404-6.425c-0.392-0.396-1.031-0.398-1.426-0.006C31.005,17.939,31.003,17.941,31.001,17.943z"/>
</g>
</svg>
