<?xml version="1.0" encoding="utf-8"?>
<!-- Generator: Adobe Illustrator 15.0.0, SVG Export Plug-In . SVG Version: 6.00 Build 0)  -->
<!DOCTYPE svg PUBLIC "-//W3C//DTD SVG 1.1//EN" "http://www.w3.org/Graphics/SVG/1.1/DTD/svg11.dtd">
<svg version="1.1" id="Layer_1" xmlns="http://www.w3.org/2000/svg" xmlns:xlink="http://www.w3.org/1999/xlink" x="0px" y="0px"
	 width="50px" height="50px" viewBox="0 0 50 50" enable-background="new 0 0 50 50" xml:space="preserve">
<rect fill="#FFFFFF" stroke="#000000" stroke-miterlimit="10" width="50" height="50"/>
<g id="Layer_2">
	<path d="M34.297,14.066c-0.613,0.607-0.617,1.598-0.01,2.209c0.004,0.004,0.007,0.007,0.01,0.01l7.188,7.188H4.703
		c-0.863,0-1.563,0.699-1.563,1.563s0.7,1.563,1.563,1.563h36.75l-7.156,7.141c-0.605,0.609-0.605,1.594,0,2.203
		c0.609,0.605,1.594,0.605,2.203,0l9.938-9.938c0.548-0.525,0.566-1.396,0.04-1.944c-0.013-0.014-0.026-0.026-0.04-0.04
		l-9.922-9.953c-0.607-0.613-1.598-0.617-2.209-0.01C34.303,14.061,34.3,14.063,34.297,14.066z"/>
</g>
</svg>
