<?xml version="1.0" encoding="utf-8"?>
<!-- Generator: Adobe Illustrator 15.0.0, SVG Export Plug-In . SVG Version: 6.00 Build 0)  -->
<!DOCTYPE svg PUBLIC "-//W3C//DTD SVG 1.1//EN" "http://www.w3.org/Graphics/SVG/1.1/DTD/svg11.dtd">
<svg version="1.1" id="Layer_1" xmlns="http://www.w3.org/2000/svg" xmlns:xlink="http://www.w3.org/1999/xlink" x="0px" y="0px"
	 width="612px" height="792px" viewBox="0 0 612 792" enable-background="new 0 0 612 792" xml:space="preserve">
<g>
	<path d="M190.468,201.867V139.09h-0.064c0-30.422,12.504-58.137,32.549-78.182c20.109-20.109,47.76-32.613,78.182-32.613v0.064
		h0.193v-0.064c30.422,0,58.137,12.504,78.182,32.549c20.109,20.109,32.549,47.76,32.613,78.182h-0.064v63.551
		c-13.471,4.447-23.203,17.08-23.203,32.033c0,18.627,15.082,33.773,33.773,33.773c18.627,0,33.773-15.146,33.773-33.773
		c0-12.117-6.381-22.688-15.92-28.617v-66.967h-0.064c-0.064-38.221-15.662-72.961-40.799-98.098
		c-25.201-25.201-60.006-40.863-98.227-40.863V0h-0.193v0.064c-38.221,0-72.961,15.662-98.098,40.799
		c-25.201,25.201-40.863,60.006-40.863,98.227h-0.064v68.643c-8.121,6.188-13.406,15.92-13.406,26.877
		c0,18.627,15.146,33.773,33.773,33.773s33.773-15.146,33.773-33.773C216.249,218.754,205.228,205.477,190.468,201.867
		L190.468,201.867L190.468,201.867z M74.517,202.963h42.281c-5.543,10.377-8.766,22.301-8.766,34.934
		c0,4.383,0.387,8.637,1.096,12.762H88.31L52.474,744.305h507.053L523.69,250.658h-29.648c0.709-4.125,1.096-8.443,1.096-12.762
		c0-12.633-3.158-24.492-8.766-34.934h51.047c9.088,0,17.016,3.674,22.881,9.539c5.672,5.672,9.281,13.342,9.861,21.656
		l37.963,523.295c0.064,1.031,0.129,1.805,0.129,2.256c0,8.959-3.803,16.887-9.668,22.688c-5.479,5.35-12.891,8.895-20.883,9.475
		c-1.031,0.064-1.869,0.129-2.32,0.129H36.554c-0.451,0-1.289-0.064-2.32-0.129c-7.928-0.58-15.404-4.061-20.883-9.475
		c-5.93-5.801-9.668-13.729-9.668-22.752c0-0.451,0.064-1.16,0.129-2.256l37.963-523.295c0.58-8.314,4.189-15.984,9.861-21.656
		C57.565,206.637,65.493,202.963,74.517,202.963L74.517,202.963z M247.38,202.963h108.475c-5.543,10.377-8.766,22.301-8.766,34.934
		c0,4.383,0.387,8.637,1.096,12.762h-93.199c0.709-4.125,1.096-8.443,1.096-12.762C256.146,225.264,252.923,213.404,247.38,202.963
		L247.38,202.963z"/>
</g>
<rect x="145.5" y="344.5" fill="#3CDD33" stroke="#00BF0D" stroke-miterlimit="10" width="0" height="0"/>
<polygon fill="#3CDD33" stroke="#00BF0D" stroke-width="3" stroke-miterlimit="10" points="245.313,779.194 26.61,422.322 
	248.313,608.341 572.346,125.292 "/>
</svg>
