<?xml version="1.0" encoding="utf-8"?>
<!-- Generator: Adobe Illustrator 15.0.0, SVG Export Plug-In . SVG Version: 6.00 Build 0)  -->
<!DOCTYPE svg PUBLIC "-//W3C//DTD SVG 1.1//EN" "http://www.w3.org/Graphics/SVG/1.1/DTD/svg11.dtd">
<svg version="1.1" id="Layer_1" xmlns="http://www.w3.org/2000/svg" xmlns:xlink="http://www.w3.org/1999/xlink" x="0px" y="0px"
	 width="50px" height="50px" viewBox="0 0 50 50" enable-background="new 0 0 50 50" xml:space="preserve">
<rect fill="#FFFFFF" stroke="#000000" stroke-width="0.5" stroke-miterlimit="10" width="50" height="50"/>
<g>
	<path d="M20.202,16.939v-2.607h-0.002c0-1.264,0.52-2.414,1.352-3.246c0.835-0.835,1.983-1.355,3.247-1.355v0.003h0.008V9.73
		c1.263,0,2.414,0.52,3.246,1.352c0.836,0.835,1.352,1.983,1.354,3.246h-0.003v2.639c-0.559,0.185-0.962,0.709-0.962,1.33
		c0,0.774,0.625,1.403,1.402,1.403c0.774,0,1.402-0.628,1.402-1.403c0-0.502-0.265-0.942-0.66-1.188v-2.781h-0.002
		c-0.003-1.587-0.652-3.03-1.695-4.073c-1.046-1.047-2.49-1.697-4.079-1.697V8.556h-0.008v0.002c-1.586,0-3.03,0.65-4.074,1.694
		c-1.046,1.047-1.697,2.492-1.697,4.079h-0.002v2.85c-0.337,0.257-0.556,0.662-0.556,1.116c0,0.774,0.629,1.402,1.402,1.402
		s1.402-0.628,1.402-1.402C21.272,17.64,20.814,17.088,20.202,16.939L20.202,16.939L20.202,16.939z M15.388,16.984h1.755
		c-0.23,0.43-0.365,0.925-0.365,1.45c0,0.182,0.016,0.358,0.046,0.53h-0.865l-1.488,20.498h21.055l-1.487-20.498h-1.231
		c0.03-0.171,0.046-0.35,0.046-0.53c0-0.525-0.132-1.017-0.364-1.45h2.119c0.378,0,0.707,0.152,0.951,0.396
		c0.234,0.235,0.386,0.554,0.409,0.899l1.576,21.729c0.003,0.044,0.006,0.076,0.006,0.095c0,0.372-0.158,0.701-0.402,0.941
		c-0.228,0.223-0.534,0.37-0.868,0.395c-0.043,0.002-0.076,0.005-0.096,0.005H13.81c-0.018,0-0.053-0.003-0.096-0.005
		c-0.329-0.024-0.64-0.169-0.868-0.395c-0.246-0.24-0.401-0.569-0.401-0.944c0-0.019,0.003-0.048,0.006-0.094l1.577-21.73
		c0.023-0.345,0.174-0.663,0.409-0.899C14.683,17.137,15.012,16.984,15.388,16.984L15.388,16.984z M22.565,16.984h4.504
		c-0.229,0.43-0.364,0.925-0.364,1.45c0,0.182,0.016,0.358,0.046,0.53h-3.869c0.03-0.171,0.046-0.35,0.046-0.53
		C22.929,17.91,22.795,17.417,22.565,16.984L22.565,16.984z"/>
</g>
</svg>
