<?xml version="1.0" encoding="utf-8"?>
<!-- Generator: Adobe Illustrator 15.0.0, SVG Export Plug-In . SVG Version: 6.00 Build 0)  -->
<!DOCTYPE svg PUBLIC "-//W3C//DTD SVG 1.1//EN" "http://www.w3.org/Graphics/SVG/1.1/DTD/svg11.dtd">
<svg version="1.1" id="Layer_1" xmlns="http://www.w3.org/2000/svg" xmlns:xlink="http://www.w3.org/1999/xlink" x="0px" y="0px"
	 width="50px" height="50px" viewBox="0 0 50 50" enable-background="new 0 0 50 50" xml:space="preserve">
<rect fill="#FFFFFF" stroke="#000000" stroke-miterlimit="10" width="50" height="50"/>
<g>
	<path d="M18.435,13.97v-3.567h-0.003c0-1.729,0.711-3.303,1.849-4.442c1.143-1.143,2.714-1.854,4.443-1.854v0.004h0.011V4.107
		c1.728,0,3.303,0.711,4.442,1.85c1.144,1.143,1.849,2.714,1.853,4.442h-0.004v3.611c-0.764,0.252-1.317,0.97-1.317,1.82
		c0,1.059,0.856,1.919,1.92,1.919c1.058,0,1.918-0.86,1.918-1.919c0-0.688-0.362-1.289-0.903-1.626v-3.805h-0.004
		c-0.004-2.172-0.891-4.146-2.318-5.574c-1.432-1.432-3.408-2.322-5.582-2.322V2.5h-0.011v0.003c-2.171,0-4.146,0.89-5.574,2.318
		c-1.432,1.432-2.322,3.41-2.322,5.581h-0.003v3.9c-0.461,0.352-0.761,0.905-0.761,1.527c0,1.059,0.86,1.919,1.919,1.919
		c1.058,0,1.918-0.86,1.918-1.919C19.9,14.929,19.274,14.175,18.435,13.97L18.435,13.97L18.435,13.97z M11.848,14.032h2.402
		c-0.315,0.589-0.499,1.267-0.499,1.984c0,0.249,0.022,0.491,0.063,0.725h-1.183l-2.036,28.047h28.809l-2.035-28.047h-1.686
		c0.041-0.234,0.063-0.479,0.063-0.725c0-0.718-0.18-1.391-0.498-1.984h2.9c0.517,0,0.967,0.208,1.301,0.542
		c0.32,0.322,0.527,0.758,0.56,1.23l2.157,29.731c0.004,0.061,0.008,0.104,0.008,0.129c0,0.51-0.217,0.96-0.551,1.289
		c-0.311,0.304-0.73,0.506-1.188,0.539c-0.058,0.003-0.104,0.007-0.131,0.007H9.69c-0.025,0-0.073-0.004-0.132-0.007
		c-0.45-0.033-0.875-0.23-1.187-0.539c-0.336-0.329-0.549-0.779-0.549-1.293c0-0.025,0.004-0.064,0.008-0.128L9.987,15.8
		c0.032-0.472,0.238-0.908,0.56-1.23C10.884,14.241,11.334,14.032,11.848,14.032L11.848,14.032z M21.669,14.032h6.163
		c-0.314,0.589-0.498,1.267-0.498,1.984c0,0.249,0.021,0.491,0.063,0.725h-5.294c0.041-0.234,0.063-0.479,0.063-0.725
		C22.167,15.299,21.984,14.625,21.669,14.032L21.669,14.032z"/>
</g>
</svg>
