<?xml version="1.0" encoding="utf-8"?>
<!-- Generator: Adobe Illustrator 15.0.0, SVG Export Plug-In . SVG Version: 6.00 Build 0)  -->
<!DOCTYPE svg PUBLIC "-//W3C//DTD SVG 1.1//EN" "http://www.w3.org/Graphics/SVG/1.1/DTD/svg11.dtd">
<svg version="1.1" id="Layer_1" xmlns="http://www.w3.org/2000/svg" xmlns:xlink="http://www.w3.org/1999/xlink" x="0px" y="0px"
	 width="37.852px" height="50px" viewBox="6.072 0 37.852 50" enable-background="new 6.072 0 37.852 50" xml:space="preserve">
<g>
	<path d="M17.767,12.847V8.916h-0.003c0-1.905,0.783-3.639,2.038-4.895c1.259-1.259,2.99-2.043,4.896-2.043v0.004h0.012V1.978
		c1.904,0,3.64,0.784,4.895,2.039c1.26,1.259,2.037,2.99,2.041,4.894H31.64v3.979c-0.842,0.278-1.452,1.069-1.452,2.006
		c0,1.167,0.944,2.114,2.116,2.114c1.165,0,2.113-0.947,2.113-2.114c0-0.758-0.399-1.42-0.995-1.792V8.911h-0.005
		c-0.004-2.393-0.981-4.568-2.555-6.142c-1.577-1.578-3.755-2.559-6.15-2.559V0.208h-0.012v0.003c-2.392,0-4.568,0.981-6.142,2.554
		C16.981,4.343,16,6.522,16,8.915h-0.003v4.297c-0.508,0.388-0.838,0.998-0.838,1.683c0,1.167,0.948,2.115,2.114,2.115
		c1.166,0,2.113-0.948,2.113-2.115C19.38,13.903,18.691,13.072,17.767,12.847L17.767,12.847L17.767,12.847z M10.508,12.915h2.646
		c-0.347,0.648-0.55,1.396-0.55,2.186c0,0.274,0.024,0.541,0.069,0.799h-1.304L9.128,46.805h31.744L38.63,15.9h-1.857
		c0.045-0.258,0.068-0.528,0.068-0.799c0-0.791-0.197-1.533-0.549-2.186h3.196c0.569,0,1.065,0.229,1.434,0.597
		c0.353,0.354,0.581,0.835,0.616,1.355l2.377,32.761c0.005,0.066,0.009,0.113,0.009,0.142c0,0.562-0.239,1.058-0.606,1.42
		c-0.343,0.335-0.806,0.558-1.309,0.595c-0.063,0.003-0.115,0.007-0.145,0.007H8.13c-0.027,0-0.08-0.004-0.146-0.007
		c-0.496-0.037-0.964-0.254-1.308-0.595c-0.37-0.362-0.605-0.858-0.605-1.424c0-0.028,0.005-0.071,0.009-0.142l2.376-32.762
		c0.035-0.52,0.262-1,0.617-1.355C9.446,13.145,9.942,12.915,10.508,12.915L10.508,12.915z M21.33,12.915h6.792
		c-0.347,0.648-0.549,1.396-0.549,2.186c0,0.274,0.023,0.541,0.068,0.799h-5.833c0.045-0.258,0.069-0.528,0.069-0.799
		C21.878,14.311,21.677,13.568,21.33,12.915L21.33,12.915z"/>
</g>
</svg>
