<?xml version="1.0" encoding="utf-8"?>
<!-- Generator: Adobe Illustrator 15.0.0, SVG Export Plug-In . SVG Version: 6.00 Build 0)  -->
<!DOCTYPE svg PUBLIC "-//W3C//DTD SVG 1.1//EN" "http://www.w3.org/Graphics/SVG/1.1/DTD/svg11.dtd">
<svg version="1.1" id="Layer_1" xmlns="http://www.w3.org/2000/svg" xmlns:xlink="http://www.w3.org/1999/xlink" x="0px" y="0px"
	 width="50px" height="50px" viewBox="0 0 50 50" enable-background="new 0 0 50 50" xml:space="preserve">
<rect fill="none" stroke="#FFFFFF" stroke-miterlimit="10" width="50" height="50"/>
<g>
	<path fill="#FFFFFF" d="M23.752,50l0.03-17.867h-4.642c-0.604,0-1.094-0.488-1.096-1.092l-0.021-5.759
		c-0.003-0.606,0.488-1.1,1.095-1.1h4.634v-5.565c0-6.458,3.943-9.975,9.705-9.975h4.727c0.605,0,1.096,0.49,1.096,1.095v4.856
		c0,0.604-0.49,1.095-1.094,1.095l-2.902,0.001c-3.133,0-3.739,1.489-3.739,3.674v4.817h6.884c0.656,0,1.166,0.573,1.088,1.225
		l-0.682,5.759c-0.066,0.552-0.533,0.967-1.088,0.967h-6.172L31.544,50"/>
</g>
<path fill="none" d="M154.294,56.5"/>
</svg>
