<?xml version="1.0" encoding="utf-8"?>
<!-- Generator: Adobe Illustrator 15.0.0, SVG Export Plug-In . SVG Version: 6.00 Build 0)  -->
<!DOCTYPE svg PUBLIC "-//W3C//DTD SVG 1.1//EN" "http://www.w3.org/Graphics/SVG/1.1/DTD/svg11.dtd">
<svg version="1.1" id="Layer_1" xmlns="http://www.w3.org/2000/svg" xmlns:xlink="http://www.w3.org/1999/xlink" x="0px" y="0px"
	 width="50px" height="50px" viewBox="0 0 50 50" enable-background="new 0 0 50 50" xml:space="preserve">
<rect fill="none" stroke="#FFFFFF" stroke-miterlimit="10" width="50" height="50"/>
<path fill="#FFFFFF" d="M25.003,5.437c-5.314,0-5.98,0.022-8.067,0.118c-2.083,0.095-3.504,0.424-4.748,0.909
	c-1.287,0.5-2.379,1.168-3.466,2.256c-1.088,1.086-1.756,2.178-2.257,3.465c-0.485,1.244-0.815,2.666-0.909,4.748
	C5.462,19.02,5.438,19.687,5.438,25c0,5.313,0.024,5.978,0.118,8.065c0.096,2.081,0.425,3.503,0.909,4.748
	c0.5,1.285,1.167,2.377,2.256,3.464c1.087,1.088,2.178,1.76,3.464,2.259c1.246,0.484,2.667,0.813,4.75,0.909
	c2.086,0.094,2.752,0.118,8.065,0.118c5.314,0,5.979-0.024,8.065-0.118c2.083-0.096,3.507-0.425,4.75-0.909
	c1.287-0.499,2.378-1.171,3.464-2.259c1.089-1.087,1.757-2.179,2.258-3.464c0.48-1.245,0.811-2.667,0.909-4.748
	c0.094-2.087,0.118-2.753,0.118-8.065c0-5.313-0.024-5.98-0.118-8.067c-0.099-2.082-0.429-3.504-0.909-4.748
	c-0.501-1.287-1.169-2.378-2.258-3.465c-1.088-1.088-2.177-1.757-3.464-2.256c-1.247-0.484-2.67-0.813-4.753-0.909
	c-2.086-0.096-2.751-0.118-8.065-0.118H25.003z M23.248,8.962c0.521-0.001,1.102,0,1.755,0c5.224,0,5.842,0.019,7.905,0.112
	c1.906,0.087,2.941,0.407,3.632,0.674c0.912,0.354,1.564,0.779,2.248,1.463c0.685,0.685,1.107,1.337,1.464,2.25
	c0.269,0.689,0.587,1.724,0.674,3.631c0.093,2.063,0.113,2.682,0.113,7.903s-0.021,5.84-0.113,7.903
	c-0.087,1.906-0.405,2.941-0.674,3.631c-0.354,0.913-0.779,1.563-1.464,2.248c-0.684,0.684-1.336,1.107-2.248,1.462
	c-0.688,0.27-1.726,0.587-3.632,0.674c-2.063,0.094-2.682,0.115-7.905,0.115s-5.843-0.021-7.907-0.115
	c-1.907-0.087-2.942-0.405-3.632-0.674c-0.912-0.354-1.564-0.778-2.25-1.462c-0.684-0.686-1.108-1.336-1.463-2.25
	c-0.269-0.688-0.587-1.724-0.674-3.631c-0.092-2.063-0.112-2.681-0.112-7.906c0-5.224,0.02-5.84,0.112-7.903
	c0.087-1.907,0.406-2.942,0.674-3.632c0.354-0.913,0.779-1.564,1.463-2.25c0.686-0.685,1.337-1.108,2.25-1.463
	c0.69-0.27,1.726-0.587,3.632-0.674c1.807-0.082,2.505-0.107,6.152-0.111V8.962z M35.445,12.211c-1.297,0-2.349,1.049-2.349,2.347
	c0,1.296,1.052,2.347,2.349,2.347c1.296,0,2.349-1.051,2.349-2.347C37.794,13.261,36.741,12.21,35.445,12.211L35.445,12.211z
	 M25.003,14.954c-5.549,0-10.048,4.498-10.048,10.046s4.499,10.045,10.048,10.045c5.547,0,10.045-4.496,10.045-10.045
	S30.55,14.954,25.001,14.954H25.003z M25.003,18.479c3.6,0,6.521,2.919,6.521,6.521s-2.921,6.521-6.521,6.521
	c-3.602,0-6.522-2.919-6.522-6.521S21.401,18.479,25.003,18.479z"/>
</svg>
