<?xml version="1.0" encoding="utf-8"?>
<!-- Generator: Adobe Illustrator 15.0.0, SVG Export Plug-In . SVG Version: 6.00 Build 0)  -->
<!DOCTYPE svg PUBLIC "-//W3C//DTD SVG 1.1//EN" "http://www.w3.org/Graphics/SVG/1.1/DTD/svg11.dtd">
<svg version="1.1" id="Layer_1" xmlns="http://www.w3.org/2000/svg" xmlns:xlink="http://www.w3.org/1999/xlink" x="0px" y="0px"
	 width="100px" height="100px" viewBox="0 0 100 100" enable-background="new 0 0 100 100" xml:space="preserve">
<path fill="#111111" stroke="#FFFFFF" stroke-width="2" stroke-miterlimit="10" d="M23.503,55.581c-0.708,0-1.349-0.13-1.922-0.392
	c-0.674-0.297-1.211-0.688-1.615-1.172c-0.54-0.521-0.927-1.135-1.164-1.842C18.6,51.77,18.5,51.043,18.5,50.001
	c0-1.004,0.101-1.711,0.302-2.122c0.27-0.633,0.641-1.228,1.112-1.785c0.539-0.596,1.095-1.024,1.667-1.284
	c0.572-0.26,1.212-0.391,1.922-0.391h60.332c0.707,0,1.349,0.13,1.922,0.391c0.673,0.298,1.212,0.688,1.615,1.172
	c0.506,0.521,0.894,1.153,1.162,1.897c0.202,0.408,0.304,1.116,0.304,2.122c0,1.007-0.102,1.714-0.304,2.122
	c-0.271,0.633-0.64,1.229-1.111,1.784c-0.539,0.597-1.097,1.022-1.668,1.282c-0.571,0.263-1.211,0.393-1.92,0.393L23.503,55.581
	L23.503,55.581z M16.685,88.841c-0.929,0-1.637-0.13-2.122-0.391c-0.706-0.298-1.301-0.688-1.784-1.173
	c-0.596-0.596-1.024-1.209-1.285-1.84c-0.223-0.408-0.334-1.115-0.334-2.123c0-0.965,0.112-1.654,0.334-2.064
	c0.261-0.633,0.67-1.229,1.228-1.784c0.483-0.483,1.097-0.894,1.841-1.229c0.633-0.26,1.341-0.391,2.122-0.391h66.627
	c0.78,0,1.487,0.131,2.123,0.391c0.741,0.337,1.338,0.728,1.782,1.174c0.521,0.521,0.931,1.135,1.229,1.841
	c0.261,0.481,0.392,1.172,0.392,2.063c0,0.931-0.131,1.639-0.392,2.123c-0.299,0.705-0.688,1.302-1.172,1.783
	c-0.596,0.598-1.209,1.024-1.84,1.284c-0.41,0.224-1.117,0.335-2.123,0.335L16.685,88.841L16.685,88.841z M16.685,22.266
	c-0.707,0-1.414-0.168-2.122-0.503c-0.706-0.298-1.301-0.689-1.784-1.172c-0.559-0.559-0.987-1.136-1.285-1.731
	c-0.223-0.408-0.334-1.133-0.334-2.175c0-1.004,0.112-1.712,0.334-2.122c0.261-0.633,0.67-1.228,1.228-1.784
	c0.521-0.521,1.135-0.931,1.841-1.229c0.483-0.26,1.19-0.391,2.122-0.391h66.627c0.931,0,1.638,0.13,2.123,0.391
	c0.741,0.298,1.338,0.708,1.782,1.229c0.521,0.446,0.931,1.041,1.229,1.784c0.261,0.483,0.392,1.19,0.392,2.122
	c0,0.966-0.131,1.691-0.392,2.175c-0.26,0.633-0.65,1.21-1.172,1.731c-0.668,0.483-1.282,0.874-1.84,1.172
	c-0.707,0.335-1.414,0.503-2.123,0.503H16.685z"/>
</svg>
