<?xml version="1.0" encoding="utf-8"?>
<!-- Generator: Adobe Illustrator 15.0.0, SVG Export Plug-In . SVG Version: 6.00 Build 0)  -->
<!DOCTYPE svg PUBLIC "-//W3C//DTD SVG 1.1//EN" "http://www.w3.org/Graphics/SVG/1.1/DTD/svg11.dtd">
<svg version="1.1" id="Layer_1" xmlns="http://www.w3.org/2000/svg" xmlns:xlink="http://www.w3.org/1999/xlink" x="0px" y="0px"
	 width="50px" height="50px" viewBox="0 0 50 50" enable-background="new 0 0 50 50" xml:space="preserve">
<rect fill="none" stroke="#FFFFFF" stroke-miterlimit="10" width="50" height="50"/>
<g>
	<path fill="none" d="M43.777,36.968"/>
	<g>
		<path fill="#FFFFFF" d="M45.254,12.438c-1.49,0.662-3.092,1.108-4.773,1.309c1.717-1.028,3.033-2.657,3.654-4.598
			c-1.605,0.952-3.385,1.645-5.277,2.017c-1.516-1.615-3.676-2.625-6.066-2.625c-4.59,0-8.311,3.721-8.311,8.31
			c0,0.652,0.074,1.285,0.216,1.895c-6.908-0.347-13.031-3.655-17.129-8.683c-0.715,1.227-1.125,2.655-1.125,4.178
			c0,2.883,1.468,5.427,3.696,6.917c-1.361-0.043-2.644-0.417-3.764-1.04c-0.001,0.035-0.001,0.07-0.001,0.105
			c0,4.028,2.864,7.384,6.666,8.149c-0.698,0.189-1.432,0.291-2.189,0.291c-0.535,0-1.056-0.052-1.564-0.149
			c1.058,3.302,4.127,5.706,7.763,5.771c-2.844,2.228-6.427,3.557-10.321,3.557c-0.67,0-1.333-0.037-1.982-0.116
			c3.678,2.358,8.046,3.734,12.74,3.734c15.286,0,23.644-12.664,23.644-23.645c0-0.36-0.01-0.719-0.023-1.075
			C42.732,15.569,44.139,14.105,45.254,12.438"/>
	</g>
</g>
</svg>
